<?xml version="1.0" encoding="UTF-8"?>
<svg xmlns="http://www.w3.org/2000/svg" xmlns:xlink="http://www.w3.org/1999/xlink" width="257pt" height="247pt" viewBox="0 0 257 247" version="1.1">
<defs>
<linearGradient id="linear0" gradientUnits="userSpaceOnUse" x1="276.73" y1="261.61" x2="47.173" y2="267.59" gradientTransform="matrix(0.466437,0,0,0.467163,-22.901635,0.0000837697)">
<stop offset="0" style="stop-color:rgb(100%,88.627451%,0%);stop-opacity:1;"/>
<stop offset="1" style="stop-color:rgb(94.117647%,51.372549%,0%);stop-opacity:1;"/>
</linearGradient>
<linearGradient id="linear1" gradientUnits="userSpaceOnUse" x1="288.52" y1="220.13" x2="84.103" y2="77.621" gradientTransform="matrix(0.466437,0,0,0.467163,-22.901635,0.0000837697)">
<stop offset="0" style="stop-color:rgb(100%,88.627451%,0%);stop-opacity:1;"/>
<stop offset="1" style="stop-color:rgb(94.117647%,51.372549%,0%);stop-opacity:1;"/>
</linearGradient>
<linearGradient id="linear2" gradientUnits="userSpaceOnUse" x1="288.18" y1="212.18" x2="214.74" y2="-7.0219" gradientTransform="matrix(0.466437,0,0,0.467163,-22.901635,0.0000837697)">
<stop offset="0" style="stop-color:rgb(100%,88.627451%,0%);stop-opacity:1;"/>
<stop offset="1" style="stop-color:rgb(94.117647%,51.372549%,0%);stop-opacity:1;"/>
</linearGradient>
<linearGradient id="linear3" gradientUnits="userSpaceOnUse" x1="375.45" y1="264.6" x2="600.25" y2="264.6" gradientTransform="matrix(0.466437,0,0,0.467163,-22.901635,0.0000837697)">
<stop offset="0" style="stop-color:rgb(100%,88.627451%,0%);stop-opacity:1;"/>
<stop offset="1" style="stop-color:rgb(94.117647%,51.372549%,0%);stop-opacity:1;"/>
</linearGradient>
<linearGradient id="linear4" gradientUnits="userSpaceOnUse" x1="361.32" y1="219.32" x2="565.17" y2="77.597" gradientTransform="matrix(0.466437,0,0,0.467163,-22.901635,0.0000837697)">
<stop offset="0" style="stop-color:rgb(100%,88.627451%,0%);stop-opacity:1;"/>
<stop offset="1" style="stop-color:rgb(94.117647%,51.372549%,0%);stop-opacity:1;"/>
</linearGradient>
<linearGradient id="linear5" gradientUnits="userSpaceOnUse" x1="361.03" y1="212.22" x2="434.37" y2="-7.0658" gradientTransform="matrix(0.466437,0,0,0.467163,-22.901635,0.0000837697)">
<stop offset="0" style="stop-color:rgb(100%,88.627451%,0%);stop-opacity:1;"/>
<stop offset="1" style="stop-color:rgb(94.117647%,51.372549%,0%);stop-opacity:1;"/>
</linearGradient>
</defs>
<g id="surface1">
<path style=" stroke:none;fill-rule:nonzero;fill:rgb(100%,100%,100%);fill-opacity:1;" d="M 238.101562 120.890625 C 238.101562 181.003906 189.4375 229.738281 129.421875 229.738281 C 69.402344 229.738281 20.746094 181.003906 20.746094 120.890625 C 20.746094 60.78125 69.402344 12.046875 129.421875 12.046875 C 189.4375 12.046875 238.101562 60.78125 238.101562 120.890625 Z M 238.101562 120.890625 "/>
<path style=" stroke:none;fill-rule:nonzero;fill:rgb(78.039216%,0%,5.098039%);fill-opacity:1;" d="M 128.488281 129.085938 L 18.863281 160.164062 C 22.050781 172.359375 17.113281 188.734375 24.25 198.632812 C 31.71875 208.988281 49.90625 209.109375 60.167969 216.683594 C 70.46875 224.261719 76.132812 241.679688 88.546875 245.742188 C 100.621094 249.710938 115.53125 239.183594 128.945312 239.171875 C 141.925781 239.144531 156.402344 249.765625 168.121094 246.03125 C 180.421875 242.058594 186.09375 224.777344 196.390625 217.371094 C 206.722656 209.902344 224.894531 209.960938 232.449219 199.703125 C 240.019531 189.425781 233.917969 172.675781 237.929688 160.285156 L 128.484375 129.082031 Z M 128.488281 129.085938 "/>
<path style=" stroke:none;fill-rule:nonzero;fill:url(#linear0);" d="M 105.308594 120.863281 C 105.308594 119.136719 104.304688 117.664062 102.84375 116.964844 L 18.214844 88.6875 C 13.597656 100.207031 -0.0273438 110.773438 0 123.628906 C 0.0351562 136.480469 14.511719 146.9375 18.402344 158.539062 L 102.6875 124.851562 C 104.230469 124.183594 105.304688 122.660156 105.304688 120.867188 Z M 105.308594 120.863281 "/>
<path style=" stroke:none;fill-rule:nonzero;fill:url(#linear1);" d="M 105.917969 108.75 L 105.964844 108.75 C 107.609375 108.734375 109.1875 107.796875 109.917969 106.199219 C 110.511719 104.917969 110.390625 103.496094 109.78125 102.347656 L 59.726562 30.34375 C 49.195312 36.917969 32.277344 37.28125 25.042969 47.132812 C 17.496094 57.363281 22.738281 74.582031 18.839844 86.960938 Z M 105.917969 108.75 "/>
<path style=" stroke:none;fill-rule:nonzero;fill:url(#linear2);" d="M 121.652344 98 C 123.140625 97.378906 124.097656 96.019531 124.261719 94.523438 L 127.535156 7.613281 C 114.816406 7.152344 100.820312 -2.859375 89.367188 0.804688 C 77.121094 4.75 71.449219 21.910156 61.242188 29.339844 L 116.957031 97.121094 C 118.175781 98.304688 120.015625 98.699219 121.652344 98 Z M 121.652344 98 "/>
<path style=" stroke:none;fill-rule:nonzero;fill:url(#linear3);" d="M 152.222656 120.78125 L 152.222656 120.941406 C 152.257812 122.699219 153.320312 124.191406 154.832031 124.847656 L 238.664062 158.539062 C 242.550781 146.933594 257.039062 136.476562 257.0625 123.628906 C 257.078125 110.769531 243.464844 100.203125 238.867188 88.683594 L 154.691406 116.964844 C 153.25 117.652344 152.253906 119.085938 152.21875 120.78125 Z M 152.222656 120.78125 "/>
<path style=" stroke:none;fill-rule:nonzero;fill:url(#linear4);" d="M 151.320312 108.363281 L 151.367188 108.363281 L 238.242188 86.964844 C 234.328125 74.582031 239.554688 57.363281 232.03125 47.132812 C 224.78125 37.28125 207.863281 36.917969 197.34375 30.34375 L 147.511719 101.949219 C 146.886719 103.109375 146.796875 104.527344 147.382812 105.800781 C 148.113281 107.398438 149.667969 108.34375 151.320312 108.359375 Z M 151.320312 108.363281 "/>
<path style=" stroke:none;fill-rule:nonzero;fill:url(#linear5);" d="M 135.398438 98 C 133.921875 97.378906 132.980469 96.019531 132.789062 94.523438 L 129.382812 7.613281 C 142.117188 7.152344 156.257812 -2.859375 167.699219 0.804688 C 179.9375 4.75 185.621094 21.910156 195.808594 29.339844 L 140.109375 97.121094 C 138.890625 98.304688 137.050781 98.699219 135.398438 98 Z M 135.398438 98 "/>
</g>
</svg>
